<?xml version="1.0" encoding="UTF-8"?>
<svg width="86px" height="99px" viewBox="0 0 86 99" version="1.1" xmlns="http://www.w3.org/2000/svg" xmlns:xlink="http://www.w3.org/1999/xlink">
    <!-- Generator: Sketch 45.2 (43514) - http://www.bohemiancoding.com/sketch -->
    <title>Group</title>
    <desc>Created with Sketch.</desc>
    <defs>
        <linearGradient x1="100%" y1="51.5448928%" x2="0%" y2="51.5448928%" id="linearGradient-1">
            <stop stop-color="#6443AE" offset="0%"></stop>
            <stop stop-color="#379392" offset="100%"></stop>
        </linearGradient>
    </defs>
    <g id="Page-1" stroke="none" stroke-width="1" fill="none" fill-rule="evenodd">
        <g id="Group" fill="url(#linearGradient-1)">
            <path d="M46.0314036,77.4947509 C58.0783861,73.5021698 64.2206514,66.5377308 64.4581996,56.6014342 C64.6957477,46.6651376 58.5534824,39.818985 46.0314036,36.0629765 L46.0314036,14.508992 C58.4108439,14.738416 85.6754464,24.9481584 85.7178075,56.6014342 C85.7601687,88.25471 59.3295206,98.9519194 46.0314036,98.9519194 L46.0314036,77.4947509 Z M40.6864548,77.9857589 L40.6864548,99.0340799 C29.8240229,97.4469396 1.5454352,88.8278049 1.00005086,57.0924422 C0.733224511,41.5660872 1.00005086,12.0329117 1.5454352,0.354131579 C10.9662229,1.00810529 17.5797173,5.89006143 21.3859183,15 C32.5146729,15.0322148 38.948185,15.0322148 40.6864548,15 L40.6864548,35.9726567 L22.2596588,35.9726567 C22.1181116,44.1317955 22.1181116,51.171724 22.2596588,57.0924422 C22.497207,67.0287388 28.6394723,73.9931777 40.6864548,77.9857589 Z M12.3416007,35.6832014 C18.053109,35.6832014 22.6832014,31.053109 22.6832014,25.3416007 C22.6832014,19.6300923 18.053109,15 12.3416007,15 C6.63009234,15 2,19.6300923 2,25.3416007 C2,31.053109 6.63009234,35.6832014 12.3416007,35.6832014 Z" id="Combined-Shape"></path>
        </g>
    </g>
</svg>