<?xml version="1.0" encoding="UTF-8"?>
<svg width="59px" height="69px" viewBox="0 0 59 69" version="1.1" xmlns="http://www.w3.org/2000/svg" xmlns:xlink="http://www.w3.org/1999/xlink">
    <!-- Generator: Sketch 45.2 (43514) - http://www.bohemiancoding.com/sketch -->
    <title>Group</title>
    <desc>Created with Sketch.</desc>
    <defs>
        <linearGradient x1="100%" y1="51.5448928%" x2="0%" y2="51.5448928%" id="linearGradient-1">
            <stop stop-color="#6443AE" offset="0%"></stop>
            <stop stop-color="#379392" offset="100%"></stop>
        </linearGradient>
    </defs>
    <g id="Page-1" stroke="none" stroke-width="1" fill="none" fill-rule="evenodd">
        <g id="Group" transform="translate(-0.558563, -0.091353)" fill="url(#linearGradient-1)">
            <path d="M31.8746495,53.6615838 C40.2166359,50.8969033 44.4698748,46.0743467 44.634366,39.193914 C44.7988573,32.3134814 40.5456184,27.5728327 31.8746495,24.9719679 L31.8746495,10.0468158 C40.4468478,10.2056815 59.3263427,17.2754629 59.3556758,39.193914 C59.385009,61.1123652 41.0829896,68.5196952 31.8746495,68.5196952 L31.8746495,53.6615838 Z M28.173516,54.0015845 L28.173516,68.5765876 C20.6517769,67.4775653 1.07014346,61.5092073 0.69248965,39.5339147 C0.507724563,28.7826213 0.69248965,8.33224304 1.07014346,0.245219982 C7.59360965,0.698066975 12.1731531,4.07859915 14.808774,10.3868165 C22.5149294,10.4091238 26.9698434,10.4091238 28.173516,10.3868165 L28.173516,24.9094256 L15.4137994,24.9094256 C15.3157844,30.5592574 15.3157844,35.4340871 15.4137994,39.5339147 C15.5782907,46.4143473 19.8315296,51.2369039 28.173516,54.0015845 Z M8.5459961,24.708991 C12.5009554,24.708991 15.7070833,21.502863 15.7070833,17.5479037 C15.7070833,13.5929445 12.5009554,10.3868165 8.5459961,10.3868165 C4.59103683,10.3868165 1.38490887,13.5929445 1.38490887,17.5479037 C1.38490887,21.502863 4.59103683,24.708991 8.5459961,24.708991 Z" id="Combined-Shape"></path>
        </g>
    </g>
</svg>